<?xml version="1.0" encoding="utf-8"?>
<!-- Generator: Adobe Illustrator 27.5.0, SVG Export Plug-In . SVG Version: 6.00 Build 0)  -->
<svg version="1.1" xmlns="http://www.w3.org/2000/svg" xmlns:xlink="http://www.w3.org/1999/xlink" x="0px" y="0px"
	 viewBox="0 0 500 500" style="enable-background:new 0 0 500 500;" xml:space="preserve">
<g id="BACKGROUND">
	<rect style="fill:#FCF6F1;" width="500" height="500"/>
</g>
<g id="OBJECTS">
	<g>
		<path style="fill:#FFFFFF;" d="M425.795,324.977c-1.137-1.55-2.533-2.88-3.677-4.418c-1.568-2.109-1.575-4.282-0.941-6.756
			c0.975-3.799,2.393-7.412,3.13-11.284c1.41-7.41,1.51-15.021,0.178-22.449c-2.491-13.885-10.644-27.187-23.738-33.263
			c-11.865-5.506-26.893-5.658-38.045,1.7c-0.815,0.538-1.593,1.123-2.352,1.731c3.979-19.878,7.352-40.199,4.495-60.426
			c-2.469-17.483-10.508-34.367-24.162-45.873c-6.208-5.231-13.491-9.265-21.44-11.088c-8.741-2.005-17.901-1.249-26.334,1.722
			c-17.963,6.329-31.954,20.722-43.336,35.469c-13.059,16.919-23.096,36.074-29.672,56.401c-8.943-8.872-22.969-10.319-34.792-6.858
			c-15.09,4.417-25.511,16.754-32.17,30.49c-3.754,7.743-6.485,15.924-8.886,24.174c-12.123-7.402-26.059-14.144-40.547-13.207
			c-13.571,0.878-24.849,9.07-31.693,20.561c-7.773,13.051-8.926,28.637-7.311,43.445c1.724,15.809,5.723,31.51,10.772,46.564
			c5.625,16.77,12.995,32.926,21.923,48.194c0.043,0.074,0.093,0.137,0.143,0.197c-2.223,0.16-2.103,3.805,0.336,4.001
			c20.164,1.627,40.371,1.042,60.565,0.413c20.221-0.63,40.441-1.26,60.661-1.89c40.559-1.264,81.118-2.527,121.678-3.791
			c9.933-0.31,19.866-0.619,29.799-0.928c5.043-0.157,10.109-0.195,15.146-0.507c4.176-0.259,7.984-1.198,11.233-3.953
			c3.241-2.749,5.818-6.473,8.375-9.838c2.744-3.61,5.338-7.335,7.773-11.16c4.835-7.597,9.063-15.596,12.564-23.894
			C431.067,355.191,435.062,337.609,425.795,324.977z"/>
		<path style="fill:#B0DB00;" d="M409.885,371.254c-1.149-0.809-2.383-1.473-3.657-2.023c3.535-9.829,6.357-21.715-0.019-30.814
			c-5.986-8.541-16.908-10.511-25.669-6.411c-3.052,1.428-5.766,3.482-8.146,5.945c0.21-5.646,0.058-11.325-1.318-16.778
			c-1.751-6.939-5.584-12.822-11.139-16.7c-10.707-7.476-24.613-6.177-34.686,1.911c-4.57,3.669-8.345,8.384-11.162,13.735
			c-4.969-12.479-15.127-22.241-27.053-26.232c-13.719-4.591-28.472-0.33-39.166,9.881c-5.1,4.871-9.234,11.191-11.608,18.173
			c-11.59-10.938-25.666-19.337-40.874-21.934c-14.768-2.521-30.241,0.767-42.523,10.321c-6.169,4.799-11.266,10.997-14.727,18.356
			c-8.532-3.336-18.45-2.512-26.064,3.1c-7.916,5.835-11.654,16.108-10.161,26.347c0.6,4.12,2.182,8.091,4.622,11.29
			c-6.309,1.208-11.149,7.736-12.409,14.661c-1.738,9.554,3.07,18.665,7.834,26.447c-0.944,0.845-1.523,2.275-1.422,3.654
			c0.222,3.044,3.153,4.044,5.53,3.769c6.553-0.757,13.072-2.032,19.623-2.861c13.111-1.658,26.272-2.828,39.45-3.621
			c26.303-1.583,52.661-1.669,78.993-1.177c26.341,0.493,52.695,1.322,79.019,2.462c13.205,0.572,26.406,1.332,39.577,2.54
			c6.527,0.599,13.045,1.311,19.548,2.173c3.254,0.431,6.504,0.899,9.749,1.41c3.193,0.503,6.425,1.298,9.65,1.472
			c6.008,0.324,10.281-4.487,13.772-9.272c3.203-4.391,5.44-9.378,5.831-15.031C421.947,386.397,417.293,376.467,409.885,371.254z"
			/>
		<g>
			<path style="fill:#CE7132;" d="M238.749,407.107c0,0,13.967-222.803,18.622-283.99c0.665,0.665,15.962,0,15.962,0l7.981,286.65
				L238.749,407.107z"/>
			<g>
				<path style="fill:#964A17;" d="M247.477,270.009c-0.086,1.332-0.172,2.662-0.258,3.991c5.422-0.105,10.844-0.254,16.264-0.467
					c4.675-0.184,9.347-0.424,14.018-0.691l-0.109-3.932C267.429,269.463,257.455,269.818,247.477,270.009z"/>
				<path style="fill:#964A17;" d="M253.416,179.574c7.159,0.865,14.343,1.471,21.541,1.858l-0.094-3.377
					c-7.09-0.372-14.173-0.955-21.224-1.796C253.565,177.356,253.491,178.46,253.416,179.574z"/>
				<path style="fill:#964A17;" d="M275.129,187.633l-0.091-3.282c-7.311,0.124-14.623,0.045-21.929-0.198
					c-0.074,1.099-0.148,2.202-0.222,3.315C260.298,187.705,267.716,187.773,275.129,187.633z"/>
				<path style="fill:#964A17;" d="M275.708,208.403l-0.099-3.549c-7.909-1.007-15.797-2.204-23.636-3.651
					c-0.076,1.148-0.152,2.299-0.229,3.457C259.693,206.148,267.686,207.376,275.708,208.403z"/>
				<path style="fill:#964A17;" d="M278.426,306.047l-0.112-4.035c-10.91-1.888-21.758-4.198-32.44-7.102
					c-0.086,1.337-0.171,2.67-0.257,3.999c0.84,0.228,1.678,0.459,2.521,0.679C258.135,302.195,268.248,304.301,278.426,306.047z"/>
				<path style="fill:#964A17;" d="M278.874,322.124c-11.613,1.092-23.251,1.926-34.902,2.502c-0.089,1.393-0.177,2.775-0.265,4.147
					c11.778-0.59,23.542-1.448,35.28-2.572L278.874,322.124z"/>
				<path style="fill:#964A17;" d="M280.382,376.295l-0.118-4.242c-13.156,1.987-26.363,3.627-39.611,4.835
					c-0.093,1.469-0.183,2.896-0.27,4.276c5.787-0.521,11.568-1.118,17.338-1.798C265.293,378.474,272.846,377.437,280.382,376.295z
					"/>
				<path style="fill:#964A17;" d="M274.209,154.595c-6.35-0.048-12.701-0.333-19.036-0.837c-0.049,0.708-0.098,1.421-0.148,2.141
					c6.399,0.589,12.821,0.919,19.247,0.989L274.209,154.595z"/>
				<path style="fill:#964A17;" d="M279.639,349.591l-0.115-4.121c-12.228-1.311-24.424-2.906-36.574-4.806
					c-0.087,1.368-0.173,2.721-0.258,4.061c2.692,0.421,5.384,0.841,8.081,1.232C260.37,347.349,269.996,348.549,279.639,349.591z"
					/>
				<path style="fill:#964A17;" d="M280.86,393.479l-0.119-4.279c-13.583-0.603-27.154-1.471-40.7-2.624
					c-0.09,1.427-0.176,2.793-0.258,4.088c1.519,0.131,3.038,0.267,4.557,0.392C256.482,392.053,268.666,392.903,280.86,393.479z"/>
				<path style="fill:#964A17;" d="M276.011,219.302l-0.102-3.658c-8.3,0.202-16.603,0.283-24.905,0.227
					c-0.081,1.225-0.161,2.454-0.242,3.686C259.179,219.61,267.597,219.526,276.011,219.302z"/>
				<path style="fill:#964A17;" d="M274.62,169.355l-0.086-3.095c-6.74,0.483-13.485,0.446-20.226,0.117
					c-0.07,1.021-0.139,2.049-0.21,3.088C260.922,169.81,267.796,169.839,274.62,169.355z"/>
				<path style="fill:#964A17;" d="M276.912,251.674l-0.11-3.958c-9.225-1.691-18.395-3.669-27.494-5.935
					c-0.084,1.29-0.168,2.582-0.252,3.875C258.274,247.962,267.565,249.97,276.912,251.674z"/>
			</g>
			<path style="fill:#00893E;" d="M334.311,83.834c-0.574-4.937-3.87-8.597-8.633-9.933c-4.985-1.399-10.075,0.156-14.59,2.316
				c-5.386,2.576-17.025,17.289-21.793,20.962c1.555-3.211,11.707-32.458,12.637-35.914c1.999-7.436,2.576-16.267-1.576-23.118
				c-4.367-7.206-13.176-9.268-20.806-6.323c-8.451,3.263-13.362,11.08-15.832,19.468c-2.376,8.069-5.613,31.124-5.418,39.645
				c-2.583-4.377-5.814-8.365-9.657-11.721c-6.646-5.803-15.392-10.066-24.41-8.761c-7.425,1.075-14.722,6.901-16.073,14.519
				c-1.534,8.65,4.661,15.798,11.258,20.448c7.414,5.225,15.93,8.57,24.46,11.586c-6.164,3.106-11.236,8.104-16.086,12.989
				c-5.748,5.788-11.702,12.403-12.194,20.965c-0.207,3.594,0.596,7.451,2.673,10.439c2.321,3.336,5.874,5.264,9.887,5.699
				c8.221,0.892,16.177-4.218,21.774-9.748c5.342-5.277,9.257-11.757,12.233-18.617c2.315,6.746,5.407,13.229,9.305,19.203
				c4.296,6.584,9.8,13.421,17.678,15.689c6.428,1.851,14.686-0.154,18.053-6.356c4.164-7.671-0.531-17.209-4.725-23.818
				c-4.152-6.541-9.475-12.204-15.059-17.551c14.594,0.649,29.163-6.455,38.17-17.972c2.59-3.311,4.694-6.902,6.262-10.805
				C333.485,93.049,334.825,88.249,334.311,83.834z"/>
			<path style="fill:#006D2F;" d="M300.896,101.793c-1.262,0.259-2.332,0.988-3.451,1.598c-1.124,0.613-2.27,1.196-3.429,1.741
				c-2.373,1.116-4.841,2.025-7.359,2.756c-4.524,1.312-9.197,1.995-13.902,2.029c0.215-3.213,0.566-6.429,0.96-9.656
				c0.664-5.436,1.189-10.888,1.842-16.325c0.095-0.791-0.806-1.158-1.447-0.949c-0.004-0.156-0.003-0.312-0.008-0.468
				c-0.066-1.954-3.07-1.969-3.047,0c0.11,9.369-2.144,18.349-5.698,26.862c-6.733-1.052-13.197-3.635-18.692-7.734
				c-3.871-2.888-7.178-6.765-9.181-11.172c-0.446-0.981-2.144-0.279-1.756,0.741c4.706,12.365,15.923,19.148,28.243,21.334
				c-2.665,5.79-5.887,11.353-9.327,16.658c-1.254,1.934-2.544,3.846-3.855,5.742c-1.239,1.79-3.331,3.899-3.44,6.163
				c-0.036,0.746,0.833,1.488,1.572,1.198c1.898-0.745,3.013-2.831,4.142-4.434c1.239-1.76,2.462-3.532,3.656-5.323
				c2.428-3.64,4.726-7.368,6.824-11.208c1.473-2.697,2.848-5.461,4.095-8.283c0.496,0.051,0.994,0.084,1.491,0.121
				c-0.041,0.634-0.074,1.269-0.097,1.905c-0.334,9.439,1.481,19.005,5.129,27.705c1.02,2.434,2.16,4.813,3.454,7.113
				c0.637,1.132,1.238,2.342,2.414,3c1.285,0.718,2.595,0.252,3.399-0.891c0.862-1.224-0.345-2.704-1.619-2.71
				c-0.047-0.104-0.204-0.257-0.297-0.415c-0.258-0.438-0.511-0.88-0.758-1.324c-0.531-0.952-1.036-1.918-1.518-2.895
				c-0.923-1.872-1.751-3.785-2.479-5.741c-1.468-3.945-2.593-8.033-3.331-12.177c-0.798-4.486-0.988-8.953-0.844-13.42
				c4.49,0.044,8.961-0.467,13.167-1.502c3.061-0.754,6.036-1.789,8.926-3.046c2.645-1.151,6.099-2.496,7.837-4.892
				C303.306,102.798,301.998,101.566,300.896,101.793z"/>
		</g>
		<path style="fill:#F75263;" d="M138.105,128.047c0,0-27.309,4.058-20.014,15.633c7.296,11.575,23.323-7.421,23.323-7.421
			L138.105,128.047z"/>
		<ellipse style="fill:#78AB21;" cx="256.373" cy="426.706" rx="215.351" ry="21.617"/>
		<ellipse style="fill:#679B04;" cx="274.353" cy="425.424" rx="159.463" ry="15.859"/>
		<path style="fill:#008787;" d="M272.668,385.159c0,0-9.311,18.622-8.646,35.914c0-0.665,33.254,0,33.254,0
			s3.991-37.245,1.995-37.245C297.276,383.829,272.668,385.159,272.668,385.159z"/>
		<path style="fill:#D8CABF;" d="M272.89,415.088c0,0,0-9.976-5.321-10.641c-0.569-0.071-1.16,0.057-1.763,0.326
			c-1.192,5.138-1.996,10.786-1.784,16.301c0-0.454,15.507-0.288,25.342-0.137c0.632-3.615,0.375-7.622-2.508-10.504
			C280.206,403.781,272.89,415.088,272.89,415.088z"/>
		<path style="fill:#008787;" d="M153.618,361.216c0,0-19.287,3.99-22.613,13.967c-3.326,9.976-8.424,27.933-8.424,27.933
			l38.575,11.085c0,0,4.434-22.391,6.429-25.051c1.995-2.66,16.627-7.316,16.627-7.316L153.618,361.216z"/>
		<path style="fill:#5C98CD;" d="M443.594,300.694c-10.641,1.995,17.957,45.226,3.99,72.494
			c-13.967,27.268-70.499-11.971-83.135-40.57c-12.637-28.599-50.546-103.088-97.102-103.753
			c-46.556-0.665-57.862,57.197-88.456,51.876c-16.381-2.849-17.292-29.264-13.967-55.867
			c3.325-26.603,23.278-101.758,17.292-124.37c-5.986-22.613-26.603-23.943-40.57-22.613c-13.967,1.33-17.957,12.636-30.594,9.976
			c-12.637-2.66-27.268,1.33-28.598,21.283c-0.34,5.1,1.241,10.415,4.203,15.494c12.039,3.67,31.772,7.868,47.009,2.209
			c-5.387,12.825-12.435,18.605-19.096,20.853c6.564,2.672,13.563,4.184,20.426,4.008c7.981,37.245-36.513,112.618-19.287,168.931
			c17.292,56.532,67.173,59.192,69.169,65.843c1.995,6.651-16.627,39.24-16.627,39.24s20.618,13.302,38.575,9.976
			c6.651-0.665,20.618-41.235,20.618-41.235l57.197-1.995l2.66,41.235c0,0,27.933,9.311,40.57-4.656
			c0,0.665-0.665-42.565-0.665-42.565s97.767,55.867,133.016,19.287C495.47,369.197,454.235,298.698,443.594,300.694z"/>
		<path style="fill:#73C4E3;" d="M172.506,106.246c4.25,7.901,1.939,17.403-5.162,21.224c-7.101,3.82-16.304,0.512-20.554-7.39
			c-4.25-7.901-1.939-17.403,5.162-21.223C159.053,95.037,168.255,98.345,172.506,106.246z"/>
		<g>
			<path style="fill:#438BC5;" d="M419.821,397.486c-8.719-0.369-16.379-2.914-23.488-6.617c-1.218-0.238-2.431-0.503-3.635-0.827
				c-13.527-3.644-21.18-14.078-31.949-22.117c-5.863-4.377-13.242-7.784-20.707-7.109c-8.871,0.803-14.7,7.565-15.857,16.094
				c-1.029,7.588,0.451,15.525,0.526,23.162c0.074,7.425,0.1,15.293-1.346,22.607c-0.795,4.023-1.993,9.192-6.728,9.068
				c-5.261-0.138-8.969-4.246-11.326-8.673c-7.255-13.627-5.144-29.697-6.923-44.41c-2.029-16.775-15.137-30.188-32.164-31.739
				c-14.931-1.36-30.351,8.95-33.133,23.865c9.118-9.539,26.263-11.734,38.03-7.124c9.391,3.679,14.675,12.736,14.617,22.732
				c-0.016,2.718-0.388,5.359-0.978,7.952l2.517,39.016c0.069,0.135,0.139,0.269,0.209,0.403c2.333,0.742,28.319,8.618,40.383-4.716
				c0,0.665-0.665-42.565-0.665-42.565s6.59,3.763,16.953,8.694c-0.067-1.821-0.146-3.642-0.261-5.459
				c-0.192-3.053-0.344-6.088-0.458-9.136c0.606,0.129,1.233,0.237,1.509,0.35c5.822,2.404,10.25,7.687,14.736,11.889
				c22.811,21.365,54.648,22.656,83.193,12.979c9.874-3.348,19.043-7.925,26.818-14.281c3.01-6.965,4.351-14.485,4.485-22.113
				C463.826,388.402,441.149,398.388,419.821,397.486z M342.033,380.083c0.023,0.029,0.07,0.054,0.107,0.08
				C341.317,381.613,341.504,379.412,342.033,380.083z"/>
			<path style="fill:#438BC5;" d="M206.308,332.74c0.155-2.968-1.035-6.161-2.738-8.551c-1.771-2.487-4.277-4.844-7.292-5.682
				c-3.68-1.024-7.67,0.124-9.774,3.442c-4.444,7.011,2.955,15.645,9.43,17.961c0.587,0.21,1.188,0.3,1.786,0.293
				c0.66,0.798,1.308,1.598,1.936,2.403c-0.551-0.82-1.136-1.623-1.741-2.414c1.287-0.062,2.545-0.572,3.582-1.368
				C204.185,338.172,206.147,335.821,206.308,332.74z"/>
			<path style="fill:#438BC5;" d="M178.664,379.086c-0.35,1.015-0.711,2.021-1.073,3.028c4.145,1.667,6.852,2.927,7.286,4.375
				c1.701,5.669-11.569,30.166-15.527,37.282c3.582,1.821,8.028,1.727,11.348-1.892c0.962-1.048,1.878-2.126,2.757-3.227
				c0.568-1.186,1.121-2.367,1.66-3.531c4.616-9.957,8.258-20.479,10.709-31.179c1.613-7.042,3.376-15.262,1.679-22.448
				c-1.357-5.744-5.626-10.618-9.38-14.991c-3.878-4.517-41.154-20.537-42.863-85.59c-0.756-28.778,11.721-56.786,10.756-85.604
				c-0.3-8.947-1.211-22.386-9.06-28.324c-4.802-3.632-10.483-1.903-15.705-0.342c-4.54,1.357-8.79,2.293-13.274,2.315
				c5.551,1.874,11.33,2.902,17.02,2.756c0.152,0.71,0.279,1.438,0.394,2.175c1.638-0.044,3.401-0.155,4.655-0.693
				c0.11-0.047,0.299-0.037,0.495-0.012c0.159,0.455,0.594,1.235,0.725,1.731c2.597,9.84,1.766,20.734,0.772,30.746
				c-2.072,20.868-8.398,41.06-10.432,61.956c-0.174,1.789-0.305,3.589-0.413,5.394c-3.128,0.866-5.761,3.528-6.028,7.82
				c-0.487,7.833,1.212,15.688,2.746,23.368c1.479,7.402,3.34,14.752,5.955,21.84c5.604,15.187,14.286,27.213,26.104,38.17
				c9.74,9.03,17.934,18.056,18.643,31.973C178.662,377.159,178.672,378.125,178.664,379.086z"/>
		</g>
		
			<ellipse transform="matrix(0.8806 -0.4738 0.4738 0.8806 -35.956 87.579)" style="fill:#FFFFFF;" cx="155.844" cy="115.153" rx="14.632" ry="14.964"/>
		<path style="fill:#120B0D;" d="M143.346,110.171c-0.623,0.335-1.201,0.718-1.758,1.121c-0.864,3.496-0.489,7.337,1.37,10.794
			c3.915,7.278,12.858,10.075,19.975,6.247c0.298-0.16,0.576-0.342,0.857-0.52c1.618-3.849,1.584-8.278-0.492-12.138
			C159.558,108.719,150.625,106.255,143.346,110.171z"/>
		<g>
			<path style="fill:#87DDE7;" d="M189.533,366.537c-5.321-19.287-33.919-18.622-46.556-65.843
				c-12.637-47.221,3.991-118.385,4.656-136.342c0.665-17.957-12.637-12.636-12.637-12.636
				c7.981,37.245-36.513,112.618-19.287,168.931c17.292,56.532,67.173,59.192,69.169,65.843c0.281,0.938,0.142,2.405-0.287,4.211
				C188.782,383.699,191.882,375.054,189.533,366.537z"/>
			<path style="fill:#87DDE7;" d="M460.221,405.776c7.167-7.437,11.171-16.276,12.915-25.623c-3.32,5.758-8.265,12.16-15.575,17.642
				c-18.622,13.967-55.867,4.656-81.805-11.306c-25.938-15.962-39.905-24.608-43.895-21.948c-3.99,2.66-4.656,21.948-4.656,21.948
				S424.972,442.356,460.221,405.776z"/>
			<path style="fill:#87DDE7;" d="M283.309,369.197c-3.326-7.316-44.561-2.66-48.551,0.665c-3.991,3.325-7.316,24.608-7.316,24.608
				l57.197-1.995C284.639,392.475,286.635,376.513,283.309,369.197z"/>
		</g>
		<path style="fill:#120B0D;" d="M94.758,105.159c0,2.387-1.042,4.323-2.328,4.323s-2.328-1.936-2.328-4.323
			c0-2.388,1.042-4.323,2.328-4.323S94.758,102.772,94.758,105.159z"/>
		<path style="fill:#120B0D;" d="M103.709,106.185c-0.37,2.359-1.699,4.11-2.969,3.91c-1.27-0.199-2-2.272-1.63-4.631
			c0.37-2.359,1.699-4.109,2.969-3.91C103.349,101.753,104.079,103.826,103.709,106.185z"/>
		<path d="M173.51,94.162c-4.44-5.8-12.53-8.052-19.285-5.269c-0.601,0.248-0.35,1.238,0.274,0.994
			c6.131-2.392,13.851-0.285,17.837,4.96C172.86,95.536,174.041,94.856,173.51,94.162z"/>
		<g>
			<path style="fill:#FFCB00;" d="M164.925,161.691c-0.385,5.768,4.343,13.309,8.401,18.65c1.688-8.389,3.4-17.103,4.92-25.63
				C171.601,155.245,165.238,156.992,164.925,161.691z"/>
			<path style="fill:#FFCB00;" d="M458.226,346.584c0-3.486-4.384-6.056-8.557-7.715c0.911,4.42,1.581,8.949,1.78,13.425
				C454.596,351.771,458.226,350.353,458.226,346.584z"/>
			<path style="fill:#FFCB00;" d="M178.891,280.741c-0.415-0.072-0.814-0.17-1.21-0.272c0.53,6.996,2.651,17.355,10.521,18.229
				c7.458,0.829,10.786-13.829,12.235-25C193.942,279.034,187.114,282.171,178.891,280.741z"/>
			<path style="fill:#FFCB00;" d="M156.944,196.276c0,7.316,5.986,10.641,5.986,10.641s-9.976,9.976-8.646,15.962
				c0.683,3.075,5.578,4.919,10.178,5.988c0.144-1.329,0.296-2.66,0.463-3.992c1.057-8.459,3.797-21.831,6.848-36.858
				C165.363,189.255,156.944,191.744,156.944,196.276z"/>
			<path style="fill:#FFCB00;" d="M320.428,260.162c-13.542-15.543-29.266-27.838-46.306-30.677
				c-4.372,10.565-10.002,27.481-2.785,30.638c10.641,4.656,23.943-13.302,23.943-13.302s-4.655,25.273,4.656,28.599
				C305.207,277.303,313.887,268.316,320.428,260.162z"/>
			<path style="fill:#FFCB00;" d="M246.73,266.109c5.217-0.474,1.979-21.239-0.308-33.116c-17.6,7.641-29.044,24.248-40.618,35.796
				c3.468,5.132,8.682,11.199,14.323,11.952c9.976,1.33,4.656-26.603,4.656-26.603S239.414,266.774,246.73,266.109z"/>
			<path style="fill:#FFCB00;" d="M169.995,275.41c-3.648-4.538-5.559-11.53-6.277-19.837c-6.332,4.457-13.812,10.829-13.425,15.856
				C150.724,277.041,162.076,276.489,169.995,275.41z"/>
			<path style="fill:#FFCB00;" d="M409.706,376.103c0.528,6.764,2.152,14.011,6.62,15.042c4.912,1.134,7.676-4.387,9.148-9.368
				C420.504,380.835,415.14,378.848,409.706,376.103z"/>
			<path style="fill:#FFCB00;" d="M339.841,307.344c0,0-8.646,14.632-1.33,19.287c4.455,2.835,13.837-1.727,20.497-5.73
				c-6.048-12.445-14.639-28.362-25.176-43.455c-5.55,6.209-11.755,14.808-10.618,21.251
				C325.209,310.005,339.841,307.344,339.841,307.344z"/>
			<path style="fill:#FFCB00;" d="M433.928,382.275c3.655,3.383,8.215,6.526,12.326,6.209c5.362-0.413,3.561-9.01,1.42-15.482
				c-0.031,0.061-0.058,0.124-0.09,0.185C444.648,378.921,439.825,381.705,433.928,382.275z"/>
			<path style="fill:#FFCB00;" d="M451.499,355.946c-0.065,3.758-0.515,7.446-1.491,10.965c3.755,0.587,8.402,0.869,9.547-1.039
				C460.797,363.802,455.602,359.159,451.499,355.946z"/>
			<path style="fill:#FFCB00;" d="M444.792,320.46c1.229,4.134,2.584,8.695,3.755,13.466c2.47-1.589,4.661-3.956,4.358-7.294
				C452.655,323.881,449.114,321.883,444.792,320.46z"/>
			<path style="fill:#FFCB00;" d="M360.459,352.57c3.477,3.187,9.982,1.198,16.217-2.06c-5.378-5.977-9.689-12.149-12.227-17.892
				c-0.75-1.698-1.592-3.561-2.517-5.557C358.716,336.157,355.722,348.228,360.459,352.57z"/>
			<path style="fill:#FFCB00;" d="M390.387,380.503c4.15,1.383,9.196-3.167,13.087-7.855c-4.298-2.591-8.56-5.582-12.625-8.833
				C388.1,370.25,385.496,378.873,390.387,380.503z"/>
		</g>
		<path style="fill:#EBE5E0;" d="M179.335,426.616c0,0,0-9.976-5.321-10.641c-0.147-0.018-0.296-0.019-0.446-0.013
			c-2.952,5.625-5.318,9.768-5.318,9.768s12.623,8.142,26.717,10.093c1.364-4.242,2.157-10.039-1.666-13.862
			C186.651,415.309,179.335,426.616,179.335,426.616z"/>
		<path style="fill:#D8CABF;" d="M149.406,395.8c-6.651-6.651-13.967,4.656-13.967,4.656s0-9.976-5.321-10.641
			c-1.36-0.17-2.851,0.75-4.317,2.209c-1.816,6.143-3.221,11.092-3.221,11.092l27.968,8.037
			C152.172,406.881,153.7,400.095,149.406,395.8z"/>
		<path style="fill:#EBE5E0;" d="M319.821,434.509c-0.951-3.554-2.861-9.028-5.918-10.775c-4.656-2.66-9.976,6.651-9.976,6.651
			s-4.655-7.981-9.311-7.316c-3.128,0.447-3.853,7.194-3.993,11.577C296.627,436.155,309.615,438.564,319.821,434.509z"/>
		<path style="fill:#F24F97;" d="M373.76,449.007c0,0,0,13.967,20.618,14.632c20.617,0.665,21.283-15.962,21.283-15.962
			s-11.971-0.665-16.627,5.321c0,0,3.325-18.622-5.986-23.278c-9.311,9.311-5.986,22.613-5.986,22.613
			S377.086,447.012,373.76,449.007z"/>
		<path style="fill:#AD63AC;" d="M31.908,397.13c0,0,11.306,15.962,28.599,14.632c17.292-1.33,27.933-17.292,27.933-17.292
			s-9.311-1.33-15.297,3.99c1.33-0.665,3.991-17.292-2.66-22.613c-7.316,8.646-9.976,23.278-9.976,23.278
			s-2.66-19.287-11.972-21.948c-5.321,12.637,0.665,23.278,0.665,23.278S37.229,394.47,31.908,397.13z"/>
		<path style="fill:#87C00F;" d="M412.335,461.141c0,0,8.114,11.455,20.524,10.501c12.41-0.955,20.046-12.41,20.046-12.41
			s-6.682-0.955-10.978,2.864c0.955-0.477,2.864-12.41-1.909-16.228c-5.25,6.205-7.159,16.705-7.159,16.705
			s-1.909-13.842-8.591-15.751c-3.818,9.069,0.477,16.705,0.477,16.705S416.153,459.232,412.335,461.141z"/>
		<g>
			<path style="fill:#73CEE2;" d="M461.895,394.177c-0.471,0.431-0.943,0.863-1.439,1.287c0.495,2.934,0.865,5.887,1.116,8.851
				c0.514-0.579,1.005-1.168,1.484-1.763C462.774,399.747,462.391,396.953,461.895,394.177z"/>
			<path style="fill:#73CEE2;" d="M411.143,401.58c-0.554-0.142-1.109-0.297-1.664-0.448c-0.718,5.188-1.758,10.309-3.194,15.292
				c0.525,0.091,1.05,0.182,1.575,0.267C409.321,411.731,410.406,406.657,411.143,401.58z"/>
			<path style="fill:#73CEE2;" d="M244.645,393.87l1.703-0.059c2.646-8.897,4.019-18.18,4.063-27.478
				c-0.543,0.065-1.083,0.13-1.612,0.199C248.737,375.777,247.335,385.021,244.645,393.87z"/>
			<path style="fill:#73CEE2;" d="M436.172,404.54c-0.026,4.349-0.374,8.696-1.038,12.996c0.555-0.077,1.105-0.165,1.654-0.257
				c0.637-4.245,0.972-8.537,0.997-12.836C437.252,404.485,436.713,404.514,436.172,404.54z"/>
			<path style="fill:#73CEE2;" d="M264.891,393.164l1.634-0.057c1.011-9.218,1.187-18.53,0.478-27.791
				c-0.549-0.002-1.101-0.003-1.661,0.004C266.057,374.59,265.907,383.92,264.891,393.164z"/>
			<path style="fill:#73CEE2;" d="M471.797,382.365c-0.321,0.505-0.671,1.017-1.017,1.528c0.372,0.522,0.736,1.049,1.094,1.582
				c0.21-0.724,0.402-1.452,0.582-2.184C472.237,382.981,472.02,382.671,471.797,382.365z"/>
			<path style="fill:#73CEE2;" d="M422.275,403.816c-0.554-0.078-1.111-0.171-1.668-0.26c0.747,4.831,1.221,9.701,1.446,14.585
				c0.542,0.019,1.081,0.026,1.619,0.035C423.454,413.368,422.992,408.575,422.275,403.816z"/>
			<path style="fill:#73CEE2;" d="M354.923,400.082c0.5,0.217,1.007,0.435,1.517,0.653c1.105-8.406,1.482-16.91,1.068-25.386
				c-0.565-0.338-1.12-0.668-1.666-0.992C356.328,382.935,356.011,391.554,354.923,400.082z"/>
			<path style="fill:#73CEE2;" d="M451.004,401.47c1.248,3.026,2.316,6.125,3.22,9.273c0.474-0.314,0.939-0.64,1.399-0.976
				c-0.884-3.036-1.942-6.021-3.142-8.948C451.997,401.047,451.504,401.263,451.004,401.47z"/>
			<path style="fill:#73CEE2;" d="M338.591,392.474c3.375-7.522,6.089-15.343,8.076-23.358c-0.5-0.27-0.986-0.529-1.461-0.778
				c-1.969,8.026-4.674,15.87-8.05,23.416C337.621,391.989,338.099,392.228,338.591,392.474z"/>
			<path style="fill:#73CEE2;" d="M392.071,413.277c0.984-5.797,1.594-11.657,1.795-17.536c-0.538-0.225-1.071-0.457-1.605-0.689
				c-0.172,5.966-0.757,11.917-1.742,17.806C391.036,412.999,391.553,413.139,392.071,413.277z"/>
			<path style="fill:#73CEE2;" d="M381.76,389.947c-1.803,6.182-3.986,12.249-6.6,18.099c0.469,0.165,0.944,0.326,1.417,0.488
				c2.584-5.794,4.758-11.785,6.557-17.847C382.671,390.443,382.216,390.194,381.76,389.947z"/>
			<path style="fill:#73CEE2;" d="M138.607,243.803c-6.685,0.035-13.377-0.616-19.932-1.943c-0.119,0.501-0.239,1.002-0.356,1.504
				c6.643,1.361,13.431,2.04,20.218,2.024C138.559,244.859,138.581,244.331,138.607,243.803z"/>
			<path style="fill:#73CEE2;" d="M140.657,218.337c-5.509,1.845-11.223,3.173-17.01,4.038c-0.143,0.536-0.286,1.072-0.43,1.61
				c5.87-0.794,11.648-2.053,17.251-3.886C140.531,219.51,140.594,218.922,140.657,218.337z"/>
			<path style="fill:#73CEE2;" d="M143.853,303.788c-9.748,3.816-20.004,6.344-30.431,7.424c0.095,0.514,0.187,1.028,0.291,1.54
				c10.468-1.086,20.788-3.597,30.608-7.412C144.162,304.83,144.007,304.31,143.853,303.788z"/>
			<path style="fill:#73CEE2;" d="M141.056,292.181c-0.099-0.527-0.195-1.058-0.288-1.589c-9.993-0.032-19.833-2.289-28.856-6.43
				c-0.031,0.586-0.054,1.17-0.077,1.755c1.24,0.559,2.489,1.098,3.76,1.588C123.748,290.652,132.398,292.183,141.056,292.181z"/>
			<path style="fill:#73CEE2;" d="M154.978,328.403c-0.307-0.462-0.613-0.931-0.916-1.41c-11.674,2.926-24.057,3.219-35.87,0.841
				c0.217,0.562,0.439,1.113,0.662,1.663C130.758,331.775,143.213,331.411,154.978,328.403z"/>
			<path style="fill:#73CEE2;" d="M262.871,365.377c-0.889,9.704-3.486,19.259-7.585,28.122l1.841-0.064
				c4-8.869,6.532-18.406,7.402-28.1C263.979,365.345,263.427,365.358,262.871,365.377z"/>
			<path style="fill:#73CEE2;" d="M178.704,352.048c-9.129,6.943-19.675,12.065-30.792,14.981c0.538,0.389,1.075,0.768,1.611,1.138
				c10.96-3.038,21.358-8.176,30.392-15.092C179.519,352.733,179.115,352.391,178.704,352.048z"/>
			<path style="fill:#73CEE2;" d="M115.135,258.416c-0.1,0.54-0.196,1.079-0.293,1.619c7.897-0.541,15.744-1.802,23.417-3.763
				c0.004-0.56,0.008-1.121,0.016-1.681C130.7,256.565,122.946,257.847,115.135,258.416z"/>
			<path style="fill:#73CEE2;" d="M142.591,202.514c0.055-0.408,0.109-0.813,0.164-1.217c-4.424,0.039-8.849-0.333-13.215-1.071
				c-0.095,0.37-0.187,0.738-0.283,1.109C133.656,202.121,138.121,202.51,142.591,202.514z"/>
			<path style="fill:#73CEE2;" d="M185.874,388.422c0.424-0.793,0.827-1.604,1.209-2.429c-0.695,0.386-1.396,0.761-2.099,1.133
				c0.053,0.508,0.024,1.117-0.068,1.804C185.237,388.763,185.555,388.592,185.874,388.422z"/>
			<path style="fill:#73CEE2;" d="M188.646,363.978c-3.907,6.226-8.642,11.943-14.033,16.953c0.58,0.23,1.137,0.45,1.678,0.664
				c4.95-4.686,9.344-9.968,13.05-15.699C189.136,365.235,188.906,364.595,188.646,363.978z"/>
			<path style="fill:#73CEE2;" d="M164.284,339.72c-8.077,7.328-17.258,13.447-27.163,18.032c0.396,0.404,0.794,0.801,1.193,1.192
				c9.872-4.631,19.048-10.749,27.129-18.089C165.057,340.485,164.671,340.105,164.284,339.72z"/>
		</g>
		<path style="fill:#387CAF;" d="M206.733,394.943c-1.229-2.456-3.467-4.527-6.146-5.259c-2.546-0.695-5.47-0.031-7.377,1.823
			c-1.848,1.797-2.348,4.544-1.361,6.909c1.192,2.853,3.954,3.721,6.862,3.544c1.518-0.093,3.029-0.609,3.655-2.109
			c0.512-1.226,0.292-2.713-0.554-3.737c-0.909-1.1-2.42-1.367-3.71-0.837c-1.531,0.63-2.363,2.053-2.132,3.68
			c0.181,1.276,2.07,0.865,2.141-0.29c0.091-1.474,2.344-1.925,2.354-0.164c0.005,0.813-0.574,1.168-1.33,1.307
			c-1.119,0.205-2.609,0.208-3.666-0.252c-1.53-0.666-2.279-2.466-2.158-4.057c0.141-1.867,1.577-3.3,3.29-3.893
			c4.08-1.413,8.027,1.851,9.175,5.647c0.618,2.043,0.546,4.432-0.814,6.175c-1.177,1.508-3.064,2.242-4.906,2.517
			c-4.159,0.622-9.654-1.175-10.851-5.643c-0.203-0.759-1.356-0.439-1.175,0.324c1.264,5.337,7.662,7.586,12.586,6.883
			c2.588-0.37,5.162-1.737,6.393-4.131C208.367,400.74,208.032,397.538,206.733,394.943z"/>
		<path style="fill:#387CAF;" d="M311.865,390.685c-2.946-3.591-8.884-3.898-12.503-1.212c-2.113,1.568-3.473,4.004-2.902,6.68
			c0.568,2.662,2.974,4.598,5.68,4.634c2.8,0.037,6.869-2.724,4.844-5.872c-1.896-2.945-6.145-1.774-7.773,0.766
			c-0.018,0.027-0.02,0.054-0.035,0.081c-0.19-0.641-0.203-1.335,0.02-1.975c0.521-1.497,2.009-2.613,3.467-3.106
			c2.705-0.915,6.32-0.244,7.809,2.409c0.952,1.697,0.819,3.898,0.504,5.751c-0.287,1.687-0.813,3.433-1.916,4.777
			c-3.345,4.08-9.037,1.178-12.639-0.834c-1.068-0.597-2.007,1.01-0.958,1.639c2.529,1.518,5.14,3.02,8.124,3.355
			c2.626,0.294,5.355-0.476,7.154-2.48c1.693-1.886,2.441-4.39,2.765-6.856C313.862,395.725,313.668,392.883,311.865,390.685z
			 M300.765,397.236c0.831-0.377,1.629-1.11,2.543-1.269c0.446-0.077,1.276,0.039,1.366,0.604c0.095,0.594-0.996,1.125-1.408,1.269
			c-0.766,0.269-1.64,0.254-2.387-0.072c-0.255-0.111-0.479-0.267-0.687-0.44C300.384,397.339,300.58,397.32,300.765,397.236z"/>
		<path style="fill:#00706D;" d="M149.201,374.731c-1.483-1.322-3.625-1.952-5.563-1.367c-2.121,0.64-3.521,2.57-3.47,4.788
			c0.023,0.988,0.299,2.031,0.871,2.848c0.707,1.01,1.613,1.546,2.855,1.583c1.406,0.042,1.835-1.883,0.698-2.577
			c-0.068-0.041-0.1-0.058-0.12-0.066c-0.016-0.016-0.03-0.031-0.058-0.057c-0.089-0.084-0.166-0.179-0.254-0.264
			c-0.089-0.086-0.186-0.164-0.276-0.249c-0.038-0.035-0.063-0.057-0.082-0.073c-0.011-0.019-0.02-0.034-0.039-0.064
			c-0.055-0.085-0.105-0.172-0.154-0.261c-0.021-0.038-0.033-0.059-0.046-0.08c-0.006-0.025-0.013-0.052-0.028-0.098
			c-0.031-0.1-0.057-0.199-0.083-0.299c-0.015-0.083-0.024-0.125-0.029-0.141c-0.005-0.068-0.012-0.135-0.014-0.203
			c-0.004-0.131,0.001-0.261,0.01-0.391c0.001-0.018,0.001-0.023,0.001-0.034c0.006-0.023,0.012-0.041,0.021-0.076
			c0.035-0.137,0.072-0.274,0.121-0.407c0.013-0.022,0.02-0.035,0.042-0.072c0.18-0.308,0.423-0.545,0.807-0.679
			c0.452-0.158,0.993-0.181,1.399-0.105c0.543,0.102,1.009,0.288,1.39,0.595c0.945,0.762,1.242,2.067,1.063,3.23
			c-0.423,2.741-3.067,4.435-5.719,4.373c-2.818-0.066-5.039-2.333-5.597-5.007c-0.653-3.129,1.478-6.377,4.406-7.432
			c1.063-0.383,0.638-2.054-0.474-1.718c-3.705,1.122-6.573,4.794-6.244,8.745c0.343,4.11,3.549,7.576,7.714,7.887
			c4,0.299,8.013-2.477,8.632-6.534C151.297,378.462,150.816,376.171,149.201,374.731z"/>
		<path style="fill:#D8E2E5;" d="M160.573,101.163c0.625,0.759,1.188,1.59,1.672,2.491c3.915,7.278,1.32,16.282-5.796,20.11
			c-3.768,2.027-8.043,2.181-11.818,0.811c4.429,5.377,12.067,7.111,18.303,3.756c7.117-3.828,9.712-12.832,5.796-20.11
			C166.888,104.797,163.927,102.381,160.573,101.163z"/>
		<path style="fill:#438BC5;" d="M298.09,323.164c-4.818-1.97-10.673-3.1-15.361-0.133c-5.489,3.474-7.11,11.103-2.644,16.111
			c0.809,0.907,1.791,1.726,2.872,2.431c0.37,0.329,0.749,0.644,1.136,0.931c4.281,3.178,9.854,5.747,15.251,4.037
			c4.98-1.578,9.07-6.471,8.907-11.841C308.066,328.626,303.191,325.25,298.09,323.164z"/>
		<path style="fill:#438BC5;" d="M268.356,326.04c-1.112-0.658-2.373-1.119-3.683-1.119c-2.784,0-5.094,2.006-5.821,4.615
			c-0.104,0.375-0.151,0.755-0.173,1.134c-0.292,0.723-0.374,1.522-0.117,2.273c0.813,2.376,2.417,4.308,4.957,4.89
			c3.059,0.701,6.238-0.958,7.45-3.829C272.205,331.078,271.112,327.671,268.356,326.04z"/>
		<path style="fill:#438BC5;" d="M279.586,314.462c-0.25-0.796-0.659-1.658-1.286-2.233c-0.762-0.699-1.673-1.149-2.669-1.31
			c-1.164-0.521-2.545-0.511-3.718,0.173c-1.121,0.654-1.944,1.712-2.319,2.953c-0.297,0.984-0.253,1.903-0.065,2.896
			c0.178,0.946,0.747,1.89,1.405,2.583c0.659,0.693,1.586,1.248,2.521,1.461c1.77,0.402,3.458-0.057,4.781-1.287
			c0.999-0.929,1.504-2.356,1.538-3.692C279.787,315.489,279.74,314.952,279.586,314.462z"/>
		<g>
			<path style="fill:#438BC5;" d="M182.921,312.998c-0.643-1.051-1.516-1.626-2.565-2.102c-1.765-0.682-3.642-0.737-5.358,0.273
				c-1.963,1.155-3.003,3.52-2.392,5.739c0.42,1.524,1.665,2.866,3.182,3.38c0.969,1.449,3.146,2.313,4.722,1.203
				c0.873-0.615,1.572-1.283,2.145-2.189c0.619-0.979,0.929-2.056,1.019-3.202C183.755,315.069,183.462,313.883,182.921,312.998z"/>
			<path style="fill:#438BC5;" d="M179.858,310.68c0.17,0.07,0.336,0.142,0.498,0.216c0.179,0.069,0.359,0.138,0.536,0.221
				C180.548,310.971,180.203,310.826,179.858,310.68z"/>
		</g>
		<path style="fill:#438BC5;" d="M196.652,310.464c-0.226-1.685-1.285-3.07-2.852-3.731c-0.813-0.343-1.602-0.444-2.476-0.326
			c-1.01,0.136-1.736,0.531-2.513,1.139c-0.104,0.026-0.207,0.052-0.311,0.078c-1.891,0.472-3.052,2.425-2.801,4.29
			c0.256,1.905,1.88,3.386,3.84,3.391c0.063,0,0.125,0,0.188,0c0.704,0.323,1.447,0.573,2.232,0.573
			c0.805,0,1.717-0.246,2.411-0.652C196.03,314.254,196.904,312.341,196.652,310.464z"/>
		<path style="fill:#00BC55;" d="M131.192,148.513c-0.708-4.153-1.878-8.571-4.483-11.963c-2.314-3.014-6.047-5.141-9.939-4.7
			c-3.922,0.445-6.65,3.413-7.681,7.1c-1.32,4.722,0.315,9.315,0.948,13.996c0.502,3.715-0.152,9.24-4.637,10.088
			c-1.321,0.25-0.757,2.247,0.554,2.011c3.271-0.587,5.557-3.309,6.679-6.288c1.502-3.986,0.332-8.285-0.184-12.341
			c-0.401-3.16-0.515-7.348,2.104-9.674c2.582-2.294,6.43-0.814,8.493,1.431c2.646,2.88,3.578,7.201,4.231,10.936
			c0.768,4.39,0.356,8.648-1.406,12.75c-1.702,3.963-4.106,7.587-6.193,11.349c-2.126,3.833-4.065,7.794-5.5,11.942
			c-3.046,8.802-3.615,19.031,1.746,27.067c1.139,1.706,3.689,0.227,2.752-1.609c-3.895-7.634-3.272-16.718-0.498-24.587
			c1.518-4.307,3.652-8.369,5.918-12.324c2.19-3.823,4.559-7.559,6.094-11.711C131.809,157.608,131.971,153.087,131.192,148.513z"/>
		<path style="fill:#00963D;" d="M113.752,200.785c0,0-21.337-3.46-20.76,14.417C110.292,214.625,113.752,200.785,113.752,200.785z"
			/>
		<path style="fill:#00963D;" d="M113.049,193.429c0,0-15.703-14.854-25.274,0.256C102.408,202.931,113.049,193.429,113.049,193.429
			z"/>
		<path style="fill:#00963D;" d="M117.011,184.844c0,0-8.231-20.045-24.426-9.095C102.382,190.022,117.011,184.844,117.011,184.844z
			"/>
		<path style="fill:#00963D;" d="M115.485,208.597c0,0,18.18,6.301,10.2,25.588C106.397,226.869,115.485,208.597,115.485,208.597z"
			/>
		<path style="fill:#00963D;" d="M116.191,195.878c0,0,17.627-8.171,21.465,7.441C122.544,207.017,116.191,195.878,116.191,195.878z
			"/>
		<path style="fill:#00963D;" d="M119.075,184.858c0,0,12.743-14.73,23.414-0.77C130.062,193.452,119.075,184.858,119.075,184.858z"
			/>
	</g>
</g>
</svg>
